<svg xmlns="http://www.w3.org/2000/svg" xmlns:xlink="http://www.w3.org/1999/xlink" viewBox="0 0 64 64"><defs><style>.cls-1{fill:url(#linear-gradient);}.cls-2{fill:url(#linear-gradient-2);}.cls-3{fill:url(#linear-gradient-3);}.cls-4{fill:url(#linear-gradient-4);}.cls-5{fill:url(#linear-gradient-5);}.cls-6{fill:url(#linear-gradient-6);}.cls-7{fill:url(#linear-gradient-7);}</style><linearGradient id="linear-gradient" x1="44" y1="42.38" x2="45.98" y2="42.38" gradientUnits="userSpaceOnUse"><stop offset="0" stop-color="#9f2fff"/><stop offset="1" stop-color="#0bb1d3"/></linearGradient><linearGradient id="linear-gradient-2" x1="3" y1="32.02" x2="61.05" y2="32.02" xlink:href="#linear-gradient"/><linearGradient id="linear-gradient-3" x1="11.02" y1="46.54" x2="52.98" y2="46.54" xlink:href="#linear-gradient"/><linearGradient id="linear-gradient-4" x1="11.02" y1="50.69" x2="52.98" y2="50.69" xlink:href="#linear-gradient"/><linearGradient id="linear-gradient-5" x1="28" y1="29.43" x2="48" y2="29.43" xlink:href="#linear-gradient"/><linearGradient id="linear-gradient-6" x1="32" y1="31.48" x2="44" y2="31.48" xlink:href="#linear-gradient"/><linearGradient id="linear-gradient-7" x1="23" y1="27.37" x2="53" y2="27.37" xlink:href="#linear-gradient"/></defs><g id="CONNECTION-2" data-name="CONNECTION"><path class="cls-1" d="M44.29,43.09l.15.13a1.94,1.94,0,0,0,.36.15,1,1,0,1,0-.36-1.82A1,1,0,0,0,44.29,43.09Z"/><path class="cls-2" d="M56.63,41.38H48a1,1,0,0,0,0,2h8.63A2.38,2.38,0,0,1,59,45.76v5.71a2.38,2.38,0,0,1-2.37,2.38H7.38A2.39,2.39,0,0,1,5,51.47V45.76a2.39,2.39,0,0,1,2.38-2.38c6.49,0,27.78,0,34.62,0a1,1,0,0,0,0-2H17.94L17,24.67a1,1,0,0,0-.94-.93L17,7.08a3,3,0,1,0-6,0l.94,16.61a1,1,0,0,0-.94.93l-.94,16.71H7.38A4.39,4.39,0,0,0,3,45.76v5.71a4.39,4.39,0,0,0,4.38,4.38h3.8A3.07,3.07,0,0,0,14,60h3a3.07,3.07,0,0,0,2.82-4.15H44.18A3.07,3.07,0,0,0,47,60h3a3.07,3.07,0,0,0,2.82-4.15h3.81A4.38,4.38,0,0,0,61,51.47C60.81,47.6,62.31,41.76,56.63,41.38ZM14,6a1,1,0,0,1,1,1l-.95,16.71H14L13,7.08A1,1,0,0,1,14,6ZM13,25.73h2.1l.89,15.65H12.06ZM18,56.85A1,1,0,0,1,17,58H14a1.08,1.08,0,0,1,0-2.15h3A1,1,0,0,1,18,56.85Zm33,0A1,1,0,0,1,50,58H47a1.08,1.08,0,0,1,0-2.15h3A1,1,0,0,1,51,56.85Z"/><path class="cls-3" d="M52,45.54H12a1,1,0,0,0,0,2H52A1,1,0,0,0,52,45.54Z"/><path class="cls-4" d="M52,49.69H12a1,1,0,0,0,0,2H52A1,1,0,0,0,52,49.69Z"/><path class="cls-5" d="M48,34.08c-.55-13.73-19.45-13.72-20,0a1,1,0,0,0,2,0,8,8,0,1,1,16,0A1,1,0,0,0,48,34.08Z"/><path class="cls-6" d="M38,27.88a6.11,6.11,0,0,0-6,6.2,1,1,0,0,0,2,0,4,4,0,1,1,8,0,1,1,0,0,0,2,0A6.11,6.11,0,0,0,38,27.88Z"/><path class="cls-7" d="M24,35.6a1,1,0,0,0,1-1c.72-18,25.28-18,26,0a1,1,0,0,0,2,0C52.17,14,23.83,14,23,34.6A1,1,0,0,0,24,35.6Z"/></g></svg>